<mxfile host="app.diagrams.net" modified="2022-02-09T08:56:28.279Z" agent="5.0 (Windows NT 10.0; Win64; x64) AppleWebKit/537.36 (KHTML, like Gecko) Chrome/98.0.4758.82 Safari/537.36" etag="C_dZEYUnIu-R8pi9N79N" version="16.5.4" type="github">
  <diagram name="Page-1" id="929967ad-93f9-6ef4-fab6-5d389245f69c">
    <mxGraphModel dx="1564" dy="936" grid="1" gridSize="10" guides="1" tooltips="1" connect="1" arrows="1" fold="1" page="1" pageScale="1.5" pageWidth="1169" pageHeight="826" background="#FFFFFF" math="0" shadow="0">
      <root>
        <mxCell id="0" style=";html=1;" />
        <mxCell id="1" style=";html=1;" parent="0" />
        <mxCell id="1672d66443f91eb5-18" style="edgeStyle=orthogonalEdgeStyle;rounded=0;html=1;endArrow=circlePlus;endFill=0;jettySize=auto;orthogonalLoop=1;entryX=0.75;entryY=1;" parent="1" target="6_vTQew-6M6LHdRo6NpI-2" edge="1">
          <mxGeometry relative="1" as="geometry">
            <Array as="points">
              <mxPoint x="760" y="650" />
              <mxPoint x="500" y="650" />
            </Array>
            <mxPoint x="760" y="680" as="sourcePoint" />
            <mxPoint x="500" y="630" as="targetPoint" />
          </mxGeometry>
        </mxCell>
        <mxCell id="6_vTQew-6M6LHdRo6NpI-3" value="Client visiting&amp;nbsp;" style="edgeLabel;html=1;align=center;verticalAlign=middle;resizable=0;points=[];" vertex="1" connectable="0" parent="1672d66443f91eb5-18">
          <mxGeometry x="0.2262" y="2" relative="1" as="geometry">
            <mxPoint as="offset" />
          </mxGeometry>
        </mxCell>
        <mxCell id="6_vTQew-6M6LHdRo6NpI-1" value="KDA Website" style="rounded=0;whiteSpace=wrap;html=1;" vertex="1" parent="1">
          <mxGeometry x="650" y="680" width="220" height="50" as="geometry" />
        </mxCell>
        <mxCell id="6_vTQew-6M6LHdRo6NpI-2" value="User" style="shape=umlActor;verticalLabelPosition=bottom;verticalAlign=top;html=1;outlineConnect=0;" vertex="1" parent="1">
          <mxGeometry x="450" y="590" width="30" height="60" as="geometry" />
        </mxCell>
        <mxCell id="6_vTQew-6M6LHdRo6NpI-4" value="" style="endArrow=none;html=1;rounded=0;entryX=0.5;entryY=1;entryDx=0;entryDy=0;" edge="1" parent="1" target="6_vTQew-6M6LHdRo6NpI-1">
          <mxGeometry width="50" height="50" relative="1" as="geometry">
            <mxPoint x="760" y="800" as="sourcePoint" />
            <mxPoint x="910" y="820" as="targetPoint" />
          </mxGeometry>
        </mxCell>
        <mxCell id="6_vTQew-6M6LHdRo6NpI-5" value="Login" style="rounded=0;whiteSpace=wrap;html=1;" vertex="1" parent="1">
          <mxGeometry x="1120" y="810" width="120" height="60" as="geometry" />
        </mxCell>
        <mxCell id="6_vTQew-6M6LHdRo6NpI-6" value="Existing User" style="shape=umlActor;verticalLabelPosition=bottom;verticalAlign=top;html=1;outlineConnect=0;" vertex="1" parent="1">
          <mxGeometry x="745" y="810" width="30" height="60" as="geometry" />
        </mxCell>
        <mxCell id="6_vTQew-6M6LHdRo6NpI-7" value="" style="endArrow=none;html=1;rounded=0;" edge="1" parent="1">
          <mxGeometry width="50" height="50" relative="1" as="geometry">
            <mxPoint x="800" y="840" as="sourcePoint" />
            <mxPoint x="1120" y="840" as="targetPoint" />
            <Array as="points">
              <mxPoint x="1120" y="840" />
            </Array>
          </mxGeometry>
        </mxCell>
        <mxCell id="6_vTQew-6M6LHdRo6NpI-8" value="" style="endArrow=none;html=1;rounded=0;entryX=1;entryY=0.5;entryDx=0;entryDy=0;" edge="1" parent="1" target="6_vTQew-6M6LHdRo6NpI-1">
          <mxGeometry width="50" height="50" relative="1" as="geometry">
            <mxPoint x="1000" y="705" as="sourcePoint" />
            <mxPoint x="910" y="820" as="targetPoint" />
          </mxGeometry>
        </mxCell>
        <mxCell id="6_vTQew-6M6LHdRo6NpI-9" value="New User" style="shape=umlActor;verticalLabelPosition=bottom;verticalAlign=top;html=1;outlineConnect=0;" vertex="1" parent="1">
          <mxGeometry x="1000" y="670" width="30" height="60" as="geometry" />
        </mxCell>
        <mxCell id="6_vTQew-6M6LHdRo6NpI-12" value="" style="endArrow=none;html=1;rounded=0;" edge="1" parent="1">
          <mxGeometry width="50" height="50" relative="1" as="geometry">
            <mxPoint x="1120" y="704" as="sourcePoint" />
            <mxPoint x="1040" y="704.38" as="targetPoint" />
          </mxGeometry>
        </mxCell>
        <mxCell id="6_vTQew-6M6LHdRo6NpI-13" value="Register" style="rounded=0;whiteSpace=wrap;html=1;" vertex="1" parent="1">
          <mxGeometry x="1120" y="670" width="120" height="60" as="geometry" />
        </mxCell>
        <mxCell id="6_vTQew-6M6LHdRo6NpI-14" value="&lt;b&gt;&lt;font style=&quot;font-size: 22px&quot; face=&quot;Times New Roman&quot;&gt;Database&lt;/font&gt;&lt;/b&gt;" style="whiteSpace=wrap;html=1;aspect=fixed;strokeColor=#6c8ebf;fillColor=#dae8fc;" vertex="1" parent="1">
          <mxGeometry x="1190" y="310" width="160" height="160" as="geometry" />
        </mxCell>
        <mxCell id="6_vTQew-6M6LHdRo6NpI-15" value="" style="endArrow=none;html=1;rounded=0;" edge="1" parent="1">
          <mxGeometry width="50" height="50" relative="1" as="geometry">
            <mxPoint x="800" y="400" as="sourcePoint" />
            <mxPoint x="1190" y="400" as="targetPoint" />
          </mxGeometry>
        </mxCell>
        <mxCell id="6_vTQew-6M6LHdRo6NpI-16" value="" style="endArrow=none;html=1;rounded=0;" edge="1" parent="1">
          <mxGeometry width="50" height="50" relative="1" as="geometry">
            <mxPoint x="800" y="680" as="sourcePoint" />
            <mxPoint x="800" y="400" as="targetPoint" />
          </mxGeometry>
        </mxCell>
        <mxCell id="6_vTQew-6M6LHdRo6NpI-17" value="" style="endArrow=none;html=1;rounded=0;" edge="1" parent="1">
          <mxGeometry width="50" height="50" relative="1" as="geometry">
            <mxPoint x="1200" y="670" as="sourcePoint" />
            <mxPoint x="1200" y="470" as="targetPoint" />
          </mxGeometry>
        </mxCell>
        <mxCell id="6_vTQew-6M6LHdRo6NpI-18" value="" style="endArrow=none;html=1;rounded=0;" edge="1" parent="1">
          <mxGeometry width="50" height="50" relative="1" as="geometry">
            <mxPoint x="1320" y="840" as="sourcePoint" />
            <mxPoint x="1320" y="470" as="targetPoint" />
          </mxGeometry>
        </mxCell>
        <mxCell id="6_vTQew-6M6LHdRo6NpI-19" value="" style="endArrow=none;html=1;rounded=0;exitX=1;exitY=0.5;exitDx=0;exitDy=0;" edge="1" parent="1" source="6_vTQew-6M6LHdRo6NpI-5">
          <mxGeometry width="50" height="50" relative="1" as="geometry">
            <mxPoint x="990" y="770" as="sourcePoint" />
            <mxPoint x="1320" y="840" as="targetPoint" />
          </mxGeometry>
        </mxCell>
      </root>
    </mxGraphModel>
  </diagram>
</mxfile>
